<?xml version="1.0" standalone="no"?>
<!DOCTYPE svg PUBLIC "-//W3C//DTD SVG 20010904//EN"
 "http://www.w3.org/TR/2001/REC-SVG-20010904/DTD/svg10.dtd">
<svg version="1.0" xmlns="http://www.w3.org/2000/svg"
 width="512.000000pt" height="512.000000pt" viewBox="0 0 512.000000 512.000000"
 preserveAspectRatio="xMidYMid meet">

<g transform="translate(0.000000,512.000000) scale(0.100000,-0.100000)"
fill="#000000" stroke="none">
<path d="M0 2560 l0 -2560 2560 0 2560 0 0 2560 0 2560 -2560 0 -2560 0 0
-2560z m3758 2444 c302 -44 647 -209 837 -399 188 -188 343 -504 396 -805 20
-109 21 -152 19 -865 0 -429 -5 -791 -11 -845 -24 -221 -81 -424 -167 -596
-68 -134 -139 -232 -242 -334 -255 -254 -599 -381 -1095 -406 l-140 -7 -160
-214 c-88 -118 -186 -239 -219 -268 -105 -97 -277 -165 -416 -165 -140 0 -309
67 -415 163 -33 30 -132 152 -220 270 l-160 214 -175 7 c-382 15 -613 63 -830
171 -379 190 -587 554 -639 1115 -17 186 -14 1528 3 1670 69 545 309 921 723
1129 194 97 386 147 673 174 19 2 507 5 1084 5 905 2 1063 0 1154 -14z"/>
<path d="M1286 3841 l-858 -858 5 -459 c5 -479 11 -562 56 -742 99 -399 333
-606 766 -678 49 -8 207 -20 350 -26 242 -10 263 -12 307 -34 42 -21 73 -57
245 -286 216 -286 238 -308 346 -330 44 -9 70 -9 114 0 108 22 130 44 348 332
163 216 208 269 241 286 36 18 67 22 225 27 299 11 493 50 667 132 265 125
442 338 527 631 61 209 60 198 60 1049 0 852 1 840 -61 1051 -113 390 -387
635 -810 723 -165 34 -338 41 -1019 41 l-650 0 -859 -859z m1572 -370 c12 -6
33 -28 47 -49 50 -74 49 -79 -197 -649 -121 -283 -230 -525 -240 -539 -66 -83
-206 -70 -262 25 -41 70 -36 84 204 641 122 283 231 526 243 538 54 58 134 71
205 33z m-1067 -64 c70 -47 97 -128 68 -204 -6 -15 -87 -105 -180 -198 l-169
-170 166 -165 c91 -91 172 -177 180 -192 19 -36 18 -102 -3 -145 -37 -78 -151
-111 -225 -65 -50 32 -485 473 -497 505 -15 40 -14 103 3 135 16 30 480 494
511 511 36 19 109 13 146 -12z m1676 12 c36 -13 498 -473 518 -515 24 -51 19
-104 -14 -155 -28 -42 -453 -463 -487 -482 -30 -17 -109 -12 -145 9 -72 42
-102 142 -65 212 8 15 87 99 175 187 l161 160 -164 165 c-90 91 -171 179 -180
197 -65 129 66 273 201 222z"/>
</g>
</svg>
